<svg id="visual" viewBox="0 0 900 600" width="900" height="600" xmlns="http://www.w3.org/2000/svg" xmlns:xlink="http://www.w3.org/1999/xlink" version="1.1"><g stroke-width="1" stroke-linejoin="bevel"><path d="M465 272.1L500 224.1L424 197.4Z" fill="#19435d" stroke="#19435d"></path><path d="M424 197.4L366 219.1L465 272.1Z" fill="#15384f" stroke="#15384f"></path><path d="M456 73.7L395 159.4L424 197.4Z" fill="#0c2435" stroke="#0c2435"></path><path d="M424 197.4L395 159.4L366 219.1Z" fill="#297ea6" stroke="#297ea6"></path><path d="M375 320.9L445 334.9L465 272.1Z" fill="#112e42" stroke="#112e42"></path><path d="M465 272.1L551 353.9L500 224.1Z" fill="#205a7a" stroke="#205a7a"></path><path d="M366 219.1L375 320.9L465 272.1Z" fill="#297ea6" stroke="#297ea6"></path><path d="M627 220.1L547 136.4L500 224.1Z" fill="#205a7a" stroke="#205a7a"></path><path d="M500 224.1L547 136.4L424 197.4Z" fill="#112e42" stroke="#112e42"></path><path d="M456 73.7L391 88.7L395 159.4Z" fill="#112e42" stroke="#112e42"></path><path d="M395 159.4L249 186.4L366 219.1Z" fill="#15384f" stroke="#15384f"></path><path d="M547 136.4L456 73.7L424 197.4Z" fill="#0c2435" stroke="#0c2435"></path><path d="M445 334.9L551 353.9L465 272.1Z" fill="#081a28" stroke="#081a28"></path><path d="M638 209.4L562 104.7L547 136.4Z" fill="#15384f" stroke="#15384f"></path><path d="M547 136.4L562 104.7L456 73.7Z" fill="#0c2435" stroke="#0c2435"></path><path d="M249 186.4L294 267.1L366 219.1Z" fill="#297ea6" stroke="#297ea6"></path><path d="M366 219.1L294 267.1L375 320.9Z" fill="#1d4e6b" stroke="#1d4e6b"></path><path d="M551 353.9L627 220.1L500 224.1Z" fill="#0c2435" stroke="#0c2435"></path><path d="M693 257.1L638 209.4L627 220.1Z" fill="#15384f" stroke="#15384f"></path><path d="M627 220.1L638 209.4L547 136.4Z" fill="#297ea6" stroke="#297ea6"></path><path d="M375 320.9L441 432.6L445 334.9Z" fill="#112e42" stroke="#112e42"></path><path d="M445 334.9L549 420.6L551 353.9Z" fill="#112e42" stroke="#112e42"></path><path d="M328 396.6L441 432.6L375 320.9Z" fill="#277297" stroke="#277297"></path><path d="M267 85.7L249 186.4L395 159.4Z" fill="#1d4e6b" stroke="#1d4e6b"></path><path d="M259 312.9L375 320.9L294 267.1Z" fill="#112e42" stroke="#112e42"></path><path d="M259 312.9L328 396.6L375 320.9Z" fill="#19435d" stroke="#19435d"></path><path d="M441 432.6L549 420.6L445 334.9Z" fill="#246688" stroke="#246688"></path><path d="M551 353.9L689 323.9L627 220.1Z" fill="#112e42" stroke="#112e42"></path><path d="M201 274.1L259 312.9L294 267.1Z" fill="#19435d" stroke="#19435d"></path><path d="M549 420.6L616 381.9L551 353.9Z" fill="#112e42" stroke="#112e42"></path><path d="M638 209.4L630 80.7L562 104.7Z" fill="#081a28" stroke="#081a28"></path><path d="M527 0L452 0L456 73.7Z" fill="#112e42" stroke="#112e42"></path><path d="M527 0L456 73.7L562 104.7Z" fill="#0c2435" stroke="#0c2435"></path><path d="M456 73.7L452 0L391 88.7Z" fill="#246688" stroke="#246688"></path><path d="M391 88.7L267 85.7L395 159.4Z" fill="#00101c" stroke="#00101c"></path><path d="M364 0L267 85.7L391 88.7Z" fill="#277297" stroke="#277297"></path><path d="M689 323.9L693 257.1L627 220.1Z" fill="#1d4e6b" stroke="#1d4e6b"></path><path d="M638 209.4L737 187.4L630 80.7Z" fill="#1d4e6b" stroke="#1d4e6b"></path><path d="M615 0L527 0L562 104.7Z" fill="#00101c" stroke="#00101c"></path><path d="M452 0L364 0L391 88.7Z" fill="#205a7a" stroke="#205a7a"></path><path d="M393 479.3L431 479.3L441 432.6Z" fill="#246688" stroke="#246688"></path><path d="M441 432.6L551 489.3L549 420.6Z" fill="#205a7a" stroke="#205a7a"></path><path d="M616 381.9L689 323.9L551 353.9Z" fill="#0c2435" stroke="#0c2435"></path><path d="M172 84.7L200 202.4L249 186.4Z" fill="#277297" stroke="#277297"></path><path d="M249 186.4L201 274.1L294 267.1Z" fill="#246688" stroke="#246688"></path><path d="M250 448.6L393 479.3L328 396.6Z" fill="#246688" stroke="#246688"></path><path d="M328 396.6L393 479.3L441 432.6Z" fill="#15384f" stroke="#15384f"></path><path d="M200 202.4L201 274.1L249 186.4Z" fill="#15384f" stroke="#15384f"></path><path d="M259 312.9L250 448.6L328 396.6Z" fill="#297ea6" stroke="#297ea6"></path><path d="M549 420.6L667 448.6L616 381.9Z" fill="#0c2435" stroke="#0c2435"></path><path d="M616 381.9L734 390.6L689 323.9Z" fill="#0c2435" stroke="#0c2435"></path><path d="M431 479.3L551 489.3L441 432.6Z" fill="#246688" stroke="#246688"></path><path d="M643 524.3L551 489.3L627 600Z" fill="#277297" stroke="#277297"></path><path d="M684 0L615 0L630 80.7Z" fill="#1d4e6b" stroke="#1d4e6b"></path><path d="M630 80.7L615 0L562 104.7Z" fill="#15384f" stroke="#15384f"></path><path d="M806 165.4L737 187.4L847 232.1Z" fill="#246688" stroke="#246688"></path><path d="M693 257.1L737 187.4L638 209.4Z" fill="#081a28" stroke="#081a28"></path><path d="M364 0L275 0L267 85.7Z" fill="#112e42" stroke="#112e42"></path><path d="M267 85.7L172 84.7L249 186.4Z" fill="#19435d" stroke="#19435d"></path><path d="M161 317.9L250 448.6L259 312.9Z" fill="#15384f" stroke="#15384f"></path><path d="M551 489.3L667 448.6L549 420.6Z" fill="#15384f" stroke="#15384f"></path><path d="M689 323.9L789 356.9L693 257.1Z" fill="#00101c" stroke="#00101c"></path><path d="M82 223.1L161 317.9L201 274.1Z" fill="#15384f" stroke="#15384f"></path><path d="M201 274.1L161 317.9L259 312.9Z" fill="#19435d" stroke="#19435d"></path><path d="M737 187.4L752 116.7L630 80.7Z" fill="#19435d" stroke="#19435d"></path><path d="M165 0L172 84.7L267 85.7Z" fill="#297ea6" stroke="#297ea6"></path><path d="M200 202.4L82 223.1L201 274.1Z" fill="#00101c" stroke="#00101c"></path><path d="M667 448.6L734 390.6L616 381.9Z" fill="#0c2435" stroke="#0c2435"></path><path d="M737 187.4L806 165.4L752 116.7Z" fill="#081a28" stroke="#081a28"></path><path d="M752 116.7L684 0L630 80.7Z" fill="#19435d" stroke="#19435d"></path><path d="M551 489.3L643 524.3L667 448.6Z" fill="#0c2435" stroke="#0c2435"></path><path d="M667 448.6L780 429.6L734 390.6Z" fill="#205a7a" stroke="#205a7a"></path><path d="M466 600L551 489.3L431 479.3Z" fill="#1d4e6b" stroke="#1d4e6b"></path><path d="M847 232.1L737 187.4L693 257.1Z" fill="#205a7a" stroke="#205a7a"></path><path d="M752 116.7L798 64.7L684 0Z" fill="#00101c" stroke="#00101c"></path><path d="M780 429.6L789 356.9L734 390.6Z" fill="#15384f" stroke="#15384f"></path><path d="M734 390.6L789 356.9L689 323.9Z" fill="#0c2435" stroke="#0c2435"></path><path d="M250 448.6L264 547.3L393 479.3Z" fill="#15384f" stroke="#15384f"></path><path d="M393 479.3L466 600L431 479.3Z" fill="#15384f" stroke="#15384f"></path><path d="M170 463.6L205 498.3L250 448.6Z" fill="#0c2435" stroke="#0c2435"></path><path d="M275 0L165 0L267 85.7Z" fill="#15384f" stroke="#15384f"></path><path d="M172 84.7L82 223.1L200 202.4Z" fill="#15384f" stroke="#15384f"></path><path d="M161 317.9L170 463.6L250 448.6Z" fill="#112e42" stroke="#112e42"></path><path d="M324 600L466 600L393 479.3Z" fill="#19435d" stroke="#19435d"></path><path d="M205 498.3L264 547.3L250 448.6Z" fill="#246688" stroke="#246688"></path><path d="M54 193.4L82 223.1L172 84.7Z" fill="#15384f" stroke="#15384f"></path><path d="M161 317.9L86 430.6L170 463.6Z" fill="#19435d" stroke="#19435d"></path><path d="M82 223.1L84 302.9L161 317.9Z" fill="#112e42" stroke="#112e42"></path><path d="M466 600L533 600L551 489.3Z" fill="#277297" stroke="#277297"></path><path d="M806 165.4L798 64.7L752 116.7Z" fill="#0c2435" stroke="#0c2435"></path><path d="M683 536.3L780 429.6L667 448.6Z" fill="#297ea6" stroke="#297ea6"></path><path d="M627 600L683 536.3L643 524.3Z" fill="#297ea6" stroke="#297ea6"></path><path d="M643 524.3L683 536.3L667 448.6Z" fill="#081a28" stroke="#081a28"></path><path d="M900 266.1L847 232.1L900 338.9Z" fill="#1d4e6b" stroke="#1d4e6b"></path><path d="M789 356.9L847 232.1L693 257.1Z" fill="#00101c" stroke="#00101c"></path><path d="M806 165.4L900 56.7L798 64.7Z" fill="#00101c" stroke="#00101c"></path><path d="M282 600L324 600L264 547.3Z" fill="#081a28" stroke="#081a28"></path><path d="M264 547.3L324 600L393 479.3Z" fill="#15384f" stroke="#15384f"></path><path d="M65 56.7L54 193.4L172 84.7Z" fill="#15384f" stroke="#15384f"></path><path d="M82 223.1L0 266.1L84 302.9Z" fill="#00101c" stroke="#00101c"></path><path d="M533 600L627 600L551 489.3Z" fill="#246688" stroke="#246688"></path><path d="M900 459.6L789 356.9L780 429.6Z" fill="#112e42" stroke="#112e42"></path><path d="M207 600L264 547.3L205 498.3Z" fill="#112e42" stroke="#112e42"></path><path d="M207 600L282 600L264 547.3Z" fill="#1d4e6b" stroke="#1d4e6b"></path><path d="M0 378.9L86 430.6L84 302.9Z" fill="#0c2435" stroke="#0c2435"></path><path d="M84 302.9L86 430.6L161 317.9Z" fill="#0c2435" stroke="#0c2435"></path><path d="M170 463.6L118 514.3L205 498.3Z" fill="#00101c" stroke="#00101c"></path><path d="M165 0L65 56.7L172 84.7Z" fill="#277297" stroke="#277297"></path><path d="M86 430.6L118 514.3L170 463.6Z" fill="#112e42" stroke="#112e42"></path><path d="M900 338.9L847 232.1L789 356.9Z" fill="#00101c" stroke="#00101c"></path><path d="M847 232.1L900 179.4L806 165.4Z" fill="#0c2435" stroke="#0c2435"></path><path d="M118 514.3L207 600L205 498.3Z" fill="#081a28" stroke="#081a28"></path><path d="M900 266.1L900 179.4L847 232.1Z" fill="#00101c" stroke="#00101c"></path><path d="M900 56.7L847 0L798 64.7Z" fill="#0c2435" stroke="#0c2435"></path><path d="M798 64.7L847 0L684 0Z" fill="#205a7a" stroke="#205a7a"></path><path d="M0 113.7L0 200.4L54 193.4Z" fill="#19435d" stroke="#19435d"></path><path d="M54 193.4L0 266.1L82 223.1Z" fill="#112e42" stroke="#112e42"></path><path d="M0 200.4L0 266.1L54 193.4Z" fill="#277297" stroke="#277297"></path><path d="M86 430.6L0 453.6L118 514.3Z" fill="#246688" stroke="#246688"></path><path d="M900 459.6L900 338.9L789 356.9Z" fill="#15384f" stroke="#15384f"></path><path d="M834 549.3L780 429.6L683 536.3Z" fill="#246688" stroke="#246688"></path><path d="M65 56.7L0 113.7L54 193.4Z" fill="#205a7a" stroke="#205a7a"></path><path d="M165 0L51 0L65 56.7Z" fill="#15384f" stroke="#15384f"></path><path d="M627 600L742 600L683 536.3Z" fill="#112e42" stroke="#112e42"></path><path d="M0 0L0 113.7L65 56.7Z" fill="#15384f" stroke="#15384f"></path><path d="M900 179.4L900 56.7L806 165.4Z" fill="#246688" stroke="#246688"></path><path d="M0 266.1L0 378.9L84 302.9Z" fill="#0c2435" stroke="#0c2435"></path><path d="M742 600L834 549.3L683 536.3Z" fill="#15384f" stroke="#15384f"></path><path d="M900 56.7L900 0L847 0Z" fill="#081a28" stroke="#081a28"></path><path d="M900 495.3L900 459.6L780 429.6Z" fill="#1d4e6b" stroke="#1d4e6b"></path><path d="M742 600L794 600L834 549.3Z" fill="#1d4e6b" stroke="#1d4e6b"></path><path d="M0 533.3L115 600L118 514.3Z" fill="#205a7a" stroke="#205a7a"></path><path d="M118 514.3L115 600L207 600Z" fill="#081a28" stroke="#081a28"></path><path d="M0 378.9L0 453.6L86 430.6Z" fill="#15384f" stroke="#15384f"></path><path d="M51 0L0 0L65 56.7Z" fill="#15384f" stroke="#15384f"></path><path d="M834 549.3L900 495.3L780 429.6Z" fill="#246688" stroke="#246688"></path><path d="M900 600L900 495.3L834 549.3Z" fill="#081a28" stroke="#081a28"></path><path d="M0 453.6L0 533.3L118 514.3Z" fill="#00101c" stroke="#00101c"></path><path d="M794 600L900 600L834 549.3Z" fill="#246688" stroke="#246688"></path><path d="M0 533.3L0 600L115 600Z" fill="#00101c" stroke="#00101c"></path></g></svg>