<svg xmlns="http://www.w3.org/2000/svg" viewBox="0 0 500 500"><g id="freepik--background-simple--inject-66"><path d="M277.14,200.14c40.28,3.87,85.79-12.2,121.3,15.44,26.67,20.75,25.63,53.32,12,81.9-35.72,75-164.45,69-232.45,38.41C107.61,304.21,36,221.65,95.57,157.9c24.57-26.27,59.73-26.19,95.53-10.77C221.52,160.23,245.57,197.1,277.14,200.14Z" style="fill:#FFA440"></path><path d="M277.14,200.14c40.28,3.87,85.79-12.2,121.3,15.44,26.67,20.75,25.63,53.32,12,81.9-35.72,75-164.45,69-232.45,38.41C107.61,304.21,36,221.65,95.57,157.9c24.57-26.27,59.73-26.19,95.53-10.77C221.52,160.23,245.57,197.1,277.14,200.14Z" style="fill:#fff;opacity:0.9"></path></g><g id="freepik--Shadow--inject-66"><ellipse id="freepik--path--inject-66" cx="250" cy="416.24" rx="193.89" ry="11.32" style="fill:#f5f5f5"></ellipse></g><g id="freepik--Character--inject-66"><path d="M235,199.68a7.2,7.2,0,0,0-9.94,2.17l-.22.35-.42.66-.5.74c-.33.51-.67,1-1,1.52-.7,1-1.41,2-2.15,3a64.92,64.92,0,0,1-4.61,5.55,34.84,34.84,0,0,1-5,4.49c-.43.32-.86.61-1.29.89-.34-.64-.68-1.41-1-2.22a58.08,58.08,0,0,1-2.16-7.09c-1.22-5-2.16-10.34-3.05-15.55l0-.12a3.59,3.59,0,0,0-7.12.25,95.22,95.22,0,0,0-.2,17.06,55.74,55.74,0,0,0,1.36,8.9,27,27,0,0,0,1.65,4.85,17.71,17.71,0,0,0,1.53,2.71,11.82,11.82,0,0,0,2.86,2.93,9.82,9.82,0,0,0,5.2,1.85,10.11,10.11,0,0,0,2.74-.21,8.88,8.88,0,0,0,1.19-.33l.54-.19.31-.11a30.83,30.83,0,0,0,4.7-2.23,43.16,43.16,0,0,0,7.71-5.82,59.31,59.31,0,0,0,6.16-6.78c.92-1.19,1.81-2.4,2.65-3.64.42-.63.83-1.26,1.23-1.91l.59-1,.63-1.1A7.21,7.21,0,0,0,235,199.68Z" style="fill:#ce7a63"></path><path d="M202.79,195.75l5.58-5.83-11-2.84s-4.67,5.28-.34,9.91Z" style="fill:#ce7a63"></path><path d="M203.65,201.47l-7.16.46a1.84,1.84,0,0,1-2-1.86v-3.25a2.14,2.14,0,0,1,1.95-2.11l7.17-.46a1.83,1.83,0,0,1,1.95,1.86v3.25A2.13,2.13,0,0,1,203.65,201.47Z" style="fill:#263238"></path><polygon points="207.29 183.96 197.37 184.44 197.37 187.08 208.37 189.92 207.29 183.96" style="fill:#ce7a63"></polygon><path d="M224.71,202.28c-.34,9.36,2,30.94,18.83,74.55L296.18,273c-1.26-7.23-12.32-38.41-14-72.83-.22-4.33-4.33-8-9.08-8.25-3-.13-6.44-.2-9.78-.08a210.9,210.9,0,0,0-23.08,1.82,95.94,95.94,0,0,0-10.38,2.39A6.72,6.72,0,0,0,224.71,202.28Z" style="fill:#FFA440"></path><path d="M254,219.9a.49.49,0,0,1-.49-.42.5.5,0,0,1,.4-.58l9-1.6a.5.5,0,0,1,.18,1l-9,1.6Z" style="fill:#fff;opacity:0.30000000000000004"></path><path d="M254.16,222a.5.5,0,0,1-.08-1l9-1.6a.49.49,0,0,1,.57.41.5.5,0,0,1-.4.58l-9,1.6Z" style="fill:#fff;opacity:0.30000000000000004"></path><path d="M254.3,224.18a.49.49,0,0,1-.49-.42.5.5,0,0,1,.4-.58l9-1.59a.5.5,0,0,1,.58.4.51.51,0,0,1-.41.58l-9,1.6Z" style="fill:#fff;opacity:0.30000000000000004"></path><path d="M290.36,273.83a.49.49,0,0,1-.49-.41c-.29-1.68-1.12-4.66-2.27-8.78-3.65-13.2-10.47-37.75-11.78-64.12a.5.5,0,0,1,1-.05c1.31,26.26,8.1,50.74,11.75,63.9,1.15,4.15,2,7.15,2.28,8.88a.5.5,0,0,1-.4.58Z" style="fill:#fff;opacity:0.30000000000000004"></path><path d="M282.75,208.49c-4.93-2.24-9.65-3.63-9,0a39.59,39.59,0,0,0,12,21.34C284.48,223.09,283.43,215.91,282.75,208.49Z" style="opacity:0.4"></path><path d="M312.15,196l4.27-6.9-11.8-2.24s-3.47,6.21,2,11Z" style="fill:#ce7a63"></path><polygon points="315.17 183.55 305.11 183.72 304.62 186.81 316.42 189.05 315.17 183.55" style="fill:#ce7a63"></polygon><path d="M147.73,221.43c-8,0-14.49-14.55-14.49-32.5s6.49-32.49,14.49-32.49h5.43v65Z" style="fill:#FFA440"></path><ellipse cx="153.16" cy="188.93" rx="14.49" ry="32.49" style="fill:#FFA440"></ellipse><ellipse cx="153.16" cy="188.93" rx="14.49" ry="32.49" style="opacity:0.2"></ellipse><path d="M156.22,221.43c-8,0-14.49-14.55-14.49-32.5s6.49-32.49,14.49-32.49h5.43v65Z" style="fill:#FFA440"></path><ellipse cx="161.65" cy="188.93" rx="14.49" ry="32.49" style="fill:#FFA440"></ellipse><ellipse cx="161.65" cy="188.93" rx="14.49" ry="32.49" style="opacity:0.2"></ellipse><path d="M162.89,189.92,175.56,198a67.74,67.74,0,0,0,.57-8.35Z" style="opacity:0.2"></path><path d="M350.93,190.71H163.71a1.78,1.78,0,0,1-1.78-1.78h0a1.78,1.78,0,0,1,1.78-1.78H350.93a1.79,1.79,0,0,1,1.78,1.78h0A1.79,1.79,0,0,1,350.93,190.71Z" style="fill:#263238"></path><path d="M263.28,191.84a210.9,210.9,0,0,0-23.08,1.82c-.88.14-1.76.31-2.61.48h0c-2.25,4.92.38,12.23,7.46,20.48l2.08,2.42,1.27-2.93c4.53-10.39,10-17.48,15.81-20.5l3.56-1.82C266.28,191.77,264.77,191.79,263.28,191.84Z" style="fill:#fff;opacity:0.9"></path><path d="M255.61,167.9c.08,7,1.45,19.75,7.67,23.94C256.79,195.2,251,203,246.56,213.31c-6.63-7.72-9.81-15.38-6.36-19.65,7.87-2.49,6.39-8.17,3.75-13.41Z" style="fill:#ce7a63"></path><path d="M250.86,172.94l-6.91,7.3a22.85,22.85,0,0,1,1.56,3.74c3.07-.67,6.7-4.23,6.35-7.33A10.43,10.43,0,0,0,250.86,172.94Z" style="opacity:0.2"></path><path d="M232.2,148.35c-2.69,1.48-4.94,12.18,1.37,16.31S238.2,145.07,232.2,148.35Z" style="fill:#263238"></path><path d="M258.28,156.84c-.55,9.78-.37,15.53-5.28,20.65-7.39,7.71-19.47,3.51-21.86-6.19-2.14-8.73-.88-23.26,8.66-27.37A13.14,13.14,0,0,1,258.28,156.84Z" style="fill:#ce7a63"></path><path d="M233.57,150.29c-8.85-3.55-16-14.28-11.28-20.07,6.24-7.72,13.19,5.11,33.29,9.7,16.26,3.7,10.25,17.86,4.85,23.54-3.46.92-6.69,1.66-6.69,1.66s-3.57-8.46-.06-13.72C249.89,152.6,239.63,152.72,233.57,150.29Z" style="fill:#263238"></path><path d="M220.8,142.28s6.42,8.16,32.88,9.12C242,154.68,227,152.72,220.8,142.28Z" style="fill:#263238"></path><path d="M240.78,171.51a.22.22,0,0,1-.19-.24.24.24,0,0,1,.25-.22,6.43,6.43,0,0,0,5.3-2.19.23.23,0,1,1,.37.28,6.84,6.84,0,0,1-5.71,2.38Z" style="fill:#263238"></path><path d="M262.75,167.51a9.52,9.52,0,0,1-5.78,4.24c-3.18.77-2.75-1.6-1.73-4.53.92-2.65,1.83-6.72,5-6.19S264.32,164.91,262.75,167.51Z" style="fill:#ce7a63"></path><path d="M243.47,159.9c0,.8-.41,1.45-.93,1.46s-.95-.62-.95-1.42.41-1.44.93-1.46S243.47,159.11,243.47,159.9Z" style="fill:#263238"></path><path d="M234.23,160.1c0,.8-.41,1.45-.93,1.47s-1-.63-1-1.42.41-1.45.93-1.47S234.23,159.31,234.23,160.1Z" style="fill:#263238"></path><path d="M237.34,160.44s-1.79,4.62-3.77,6.88c1.42,1.29,3.81.63,3.81.63Z" style="fill:#ba4d3c"></path><path d="M247.46,155.76a.45.45,0,0,1-.34-.12,3.63,3.63,0,0,0-3.18-1.07.45.45,0,0,1-.55-.35.48.48,0,0,1,.36-.56,4.56,4.56,0,0,1,4,1.3.47.47,0,0,1,0,.66A.45.45,0,0,1,247.46,155.76Z" style="fill:#263238"></path><path d="M234,155.5a.4.4,0,0,1,0,.15.45.45,0,0,1-.46.47,4.76,4.76,0,0,1-3.9-1.81.45.45,0,0,1,.12-.64.47.47,0,0,1,.65.12,3.82,3.82,0,0,0,3.11,1.4A.49.49,0,0,1,234,155.5Z" style="fill:#263238"></path><path d="M313.7,204.36a64.66,64.66,0,0,0-1.65-8.61,3.6,3.6,0,0,0-7.07.74v.15a101.44,101.44,0,0,1-1.62,15.47,25.94,25.94,0,0,1-.91,3.29,11.4,11.4,0,0,1-.83,1.8l-.16-.08a21.64,21.64,0,0,1-5.05-3.21,59,59,0,0,1-5.21-5c-1.69-1.84-3.36-3.77-5-5.78-.8-1-1.58-2-2.37-3l-1.15-1.54-1.07-1.46-.17-.24a7.2,7.2,0,0,0-11.84,8.19c.49.75.87,1.31,1.3,1.94s.86,1.21,1.3,1.81c.87,1.19,1.79,2.34,2.72,3.49a83.17,83.17,0,0,0,6,6.62c1.09,1.06,2.21,2.1,3.39,3.11s2.45,2,3.77,2.91a31,31,0,0,0,9.44,4.66,12.53,12.53,0,0,0,8.25-.26,11.27,11.27,0,0,0,3.78-2.59,13.26,13.26,0,0,0,2.17-3,18.66,18.66,0,0,0,1.82-5.47,34.2,34.2,0,0,0,.54-4.87A55.33,55.33,0,0,0,313.7,204.36Z" style="fill:#ce7a63"></path><path d="M260,275.63l-16.45,1.2s-57.66,13.38-55.44,43.76c1.49,20.4,10.16,53.4,16.11,74.23h13.5c-.81-20.83.65-52.82-5-73.67,8.74-1.61,38.76-12.34,49.36-15.88A27.3,27.3,0,0,0,260,275.63Z" style="fill:#263238"></path><path d="M240.87,294.31c-11.35,8.62-12.92,19.45-11.35,22,5-1.62,10.38-3.45,15.45-5.19C245,305.05,245.53,290.78,240.87,294.31Z" style="opacity:0.4"></path><path d="M281.74,274.05,260,275.63l21.74-1.57Z" style="fill:#263238"></path><path d="M296.18,273,260,275.63s-27,20.86-26.11,31a40.82,40.82,0,0,0,2.49,11.73c7.27,19.34,21.78,54.54,30.64,76.44h13.73c-4.07-22.49-8.48-58.65-17.46-75,9.5-4.24,22.49-9.6,31.44-16.43C304.77,295.76,296.18,273,296.18,273Z" style="fill:#263238"></path><path d="M209.93,414l8.44.15s-.21-7.84-.65-19.35h-13.5C207.48,406.25,209.93,414,209.93,414Z" style="fill:#ce7a63"></path><path d="M207.82,407.7l11,.08a.83.83,0,0,1,.82.7l1.37,9a1.58,1.58,0,0,1-1.58,1.79c-4-.1-9.73-.38-14.73-.42-5.86,0-5.71.24-12.58.19-4.15,0-5-4.25-3.25-4.61,8-1.67,9.28-1.81,16.42-6A4.79,4.79,0,0,1,207.82,407.7Z" style="fill:#263238"></path><path d="M274.79,414l9.3.15s-1.28-7.91-3.34-19.35H267C271.63,406.23,274.79,414,274.79,414Z" style="fill:#ce7a63"></path><path d="M272.66,407.7l11,.08a.9.9,0,0,1,.86.7l1.93,9a1.47,1.47,0,0,1-1.47,1.79c-4-.1-9.75-.38-14.76-.42-5.86,0-1.08.24-7.95.19-4.15,0-5.26-4.18-3.53-4.61,6.47-1.64,8.81-3.32,11.43-6A3.3,3.3,0,0,1,272.66,407.7Z" style="fill:#263238"></path><path d="M353,221.43c-8,0-14.49-14.55-14.49-32.5S345,156.44,353,156.44h5.43v65Z" style="fill:#FFA440"></path><path d="M353,221.43c-8,0-14.49-14.55-14.49-32.5S345,156.44,353,156.44h5.43v65Z" style="opacity:0.2"></path><ellipse cx="358.43" cy="188.93" rx="14.49" ry="32.49" style="fill:#FFA440"></ellipse><path d="M361.49,221.43c-8,0-14.49-14.55-14.49-32.5s6.49-32.49,14.49-32.49h5.43v65Z" style="fill:#FFA440"></path><path d="M361.49,221.43c-8,0-14.49-14.55-14.49-32.5s6.49-32.49,14.49-32.49h5.43v65Z" style="opacity:0.2"></path><path d="M382.63,175.19c-1.32-6.71-3.59-12.25-6.56-16l.78-.62c3.08,3.9,5.41,9.59,6.77,16.46Z" style="fill:#FFA440"></path><path d="M384.91,188.93h-1a76.15,76.15,0,0,0-.41-7.94l1-.11A75.54,75.54,0,0,1,384.91,188.93Z" style="fill:#FFA440"></path><ellipse cx="366.92" cy="188.93" rx="14.49" ry="32.49" style="fill:#FFA440"></ellipse><path d="M368.61,206.68c-4.37,0-7.92-8-7.92-17.75s3.55-17.74,7.92-17.74h3v35.49Z" style="fill:#FFA440"></path><path d="M371.57,206.68h-3c-4.36,0-7.91-8-7.91-17.74s3.55-17.75,7.91-17.75h3c-4.37,0-7.91,7.94-7.91,17.75S367.2,206.68,371.57,206.68Z" style="opacity:0.2"></path><ellipse cx="371.57" cy="188.93" rx="7.91" ry="17.74" style="fill:#fff;opacity:0.1"></ellipse></g><g id="freepik--Dumbbell--inject-66"><polygon points="425.66 321 398.17 416.24 403.22 416.24 430.71 321 425.66 321" style="fill:#263238"></polygon><polygon points="341.84 416.24 346.89 416.24 374.38 321 369.32 321 341.84 416.24" style="fill:#263238"></polygon><path d="M337.32,408.08a20.24,20.24,0,0,1,0-40.48h3.08v40.48Z" style="fill:#FFA440"></path><path d="M337.32,408.08a20.24,20.24,0,0,1,0-40.48h3.08v40.48Z" style="opacity:0.2"></path><circle cx="340.4" cy="387.84" r="20.24" style="fill:#FFA440"></circle><path d="M337.32,367.6h3.08a20.24,20.24,0,1,1,0,40.48h-3.08a20.24,20.24,0,0,1,0-40.48Z" style="opacity:0.1"></path><path d="M342.63,408.08a20.24,20.24,0,0,1,0-40.48h3.08v40.48Z" style="fill:#FFA440"></path><path d="M342.63,408.08a20.24,20.24,0,0,1,0-40.48h3.08v40.48Z" style="opacity:0.2"></path><circle cx="345.71" cy="387.84" r="20.24" style="fill:#FFA440"></circle><path d="M342.63,367.6h3.08a20.24,20.24,0,1,1,0,40.48h-3.08a20.24,20.24,0,0,1,0-40.48Z" style="opacity:0.1"></path><path d="M348.9,392.57h34.6a.75.75,0,0,0,.75-.76v-7.94a.75.75,0,0,0-.75-.76H348.9a4.73,4.73,0,0,0-4.73,4.73h0A4.73,4.73,0,0,0,348.9,392.57Z" style="fill:#263238"></path><path d="M389.42,408.08a20.24,20.24,0,0,1,0-40.48h3.08v40.48Z" style="fill:#FFA440"></path><path d="M389.42,408.08a20.24,20.24,0,0,1,0-40.48h3.08v40.48Z" style="opacity:0.2"></path><circle cx="392.5" cy="387.84" r="20.24" style="fill:#FFA440"></circle><path d="M394.72,408.08a20.24,20.24,0,0,1,0-40.48h3.08v40.48Z" style="fill:#FFA440"></path><path d="M394.72,408.08a20.24,20.24,0,0,1,0-40.48h3.08v40.48Z" style="opacity:0.2"></path><circle cx="397.8" cy="387.84" r="20.24" style="fill:#FFA440"></circle><path d="M396.39,398.38a10.54,10.54,0,1,1,0-21.08h2.83v21.08Z" style="opacity:0.2"></path><circle cx="399.22" cy="387.84" r="10.54" style="fill:#FFA440"></circle><path d="M356.14,362.09a17.94,17.94,0,1,1,0-35.87h2.73v35.87Z" style="fill:#FFA440"></path><path d="M356.14,362.09a17.94,17.94,0,1,1,0-35.87h2.73v35.87Z" style="opacity:0.2"></path><circle cx="358.87" cy="344.16" r="17.93" transform="translate(9.34 697.79) rotate(-89.14)" style="fill:#FFA440"></circle><path d="M356.14,326.22h2.73a17.94,17.94,0,0,1,0,35.87h-2.73a17.94,17.94,0,1,1,0-35.87Z" style="opacity:0.1"></path><path d="M360.84,362.09a17.94,17.94,0,0,1,0-35.87h2.73v35.87Z" style="fill:#FFA440"></path><path d="M360.84,362.09a17.94,17.94,0,0,1,0-35.87h2.73v35.87Z" style="opacity:0.2"></path><circle cx="363.57" cy="344.16" r="17.93" transform="translate(13.97 702.5) rotate(-89.14)" style="fill:#FFA440"></circle><path d="M360.84,326.22h2.73a17.94,17.94,0,1,1,0,35.87h-2.73a17.94,17.94,0,0,1,0-35.87Z" style="opacity:0.1"></path><path d="M362.87,340h30.69a4.16,4.16,0,0,1,4.16,4.16v0a4.16,4.16,0,0,1-4.16,4.16H362.87a.66.66,0,0,1-.66-.66v-7A.66.66,0,0,1,362.87,340Z" transform="translate(759.93 688.31) rotate(-180)" style="fill:#263238"></path><path d="M402.3,362.09a17.94,17.94,0,1,1,0-35.87H405v35.87Z" style="fill:#FFA440"></path><path d="M402.3,362.09a17.94,17.94,0,1,1,0-35.87H405v35.87Z" style="opacity:0.2"></path><circle cx="405.03" cy="344.16" r="17.93" style="fill:#FFA440"></circle><path d="M407,362.09a17.94,17.94,0,0,1,0-35.87h2.73v35.87Z" style="fill:#FFA440"></path><path d="M407,362.09a17.94,17.94,0,0,1,0-35.87h2.73v35.87Z" style="opacity:0.2"></path><circle cx="409.72" cy="344.16" r="17.93" style="fill:#FFA440"></circle><path d="M408.47,353.49a9.34,9.34,0,1,1,0-18.67H411v18.67Z" style="opacity:0.2"></path><circle cx="410.98" cy="344.16" r="9.34" transform="matrix(1, -0.02, 0.02, 1, -5.52, 6.7)" style="fill:#FFA440"></circle></g><g id="freepik--Bottle--inject-66"><path d="M146.37,372.2c0-6.55-6-11.87-13.33-11.87s-13.33,5.32-13.33,11.87a11,11,0,0,0,2.72,7.18,3.68,3.68,0,0,1-1.08,5.6h0a3.15,3.15,0,0,0-1.64,2.77v26.46a2.68,2.68,0,0,0,2.68,2.68h21.3a2.68,2.68,0,0,0,2.68-2.68V387.75a3.14,3.14,0,0,0-1.65-2.77h0a3.68,3.68,0,0,1-1.08-5.6A11,11,0,0,0,146.37,372.2Z" style="fill:#FFA440"></path><path d="M146.37,372.2c0-6.55-6-11.87-13.33-11.87s-13.33,5.32-13.33,11.87a11,11,0,0,0,2.72,7.18,3.68,3.68,0,0,1-1.08,5.6h0a3.15,3.15,0,0,0-1.64,2.77v26.46a2.68,2.68,0,0,0,2.68,2.68h21.3a2.68,2.68,0,0,0,2.68-2.68V387.75a3.14,3.14,0,0,0-1.65-2.77h0a3.68,3.68,0,0,1-1.08-5.6A11,11,0,0,0,146.37,372.2Z" style="fill:#fff;opacity:0.2"></path><path d="M138.61,362.62H127.46a2.29,2.29,0,0,1-2.28-2.29h0a2.29,2.29,0,0,1,2.28-2.28h11.15a2.29,2.29,0,0,1,2.29,2.28h0A2.3,2.3,0,0,1,138.61,362.62Z" style="fill:#263238"></path><rect x="129.42" y="353.6" width="7.24" height="6.73" rx="1.44" style="fill:#263238"></rect></g></svg>